<svg id="Layer_1" enable-background="new 0 0 512 512" height="512" viewBox="0 0 512 512" width="512" xmlns="http://www.w3.org/2000/svg"><g><g id="XMLID_256_"><g id="XMLID_257_"><g id="XMLID_258_"><g id="XMLID_259_"><g id="XMLID_260_"><g id="XMLID_261_"><g id="XMLID_262_"><g id="XMLID_263_"><g id="XMLID_264_"><g id="XMLID_265_"><g id="XMLID_266_"><g id="XMLID_267_"><g id="XMLID_268_"><g id="XMLID_269_"><circle id="XMLID_270_" cx="256" cy="256" fill="#3362c1" r="256"/></g></g></g></g></g></g></g></g></g></g></g></g></g></g><path d="m512 256c0-41.103-9.702-79.934-26.918-114.353l-62.146-62.147s-82.655 91.314-98.605 117.83c-12.937-5.931-83.06-17.499-93.503-13.491l-56.469-56.397-59.045 157.931s22.662 22.76 23.729 23.834c-11.798 33.256-.194 98.602-.194 98.602l103.85 103.85c4.406.225 8.84.341 13.302.341 141.384 0 255.999-114.615 255.999-256z" fill="#1d4799"/><g><path d="m387.63 391.58c-16.98 23.88-49.34 45.3-105.87 60.91-16.85 4.65-34.67 4.65-51.52 0-56.53-15.61-88.89-37.03-105.87-60.91 0 0-10.27-47.043 8.63-87.913 26.56-57.43 111.8-143.467 111.8-143.467 3.87-.42 7.61-.61 11.2-.61s7.33.19 11.2.61c0 0 88.413 67.746 111.133 126.8 25.392 66 9.297 104.58 9.297 104.58z" fill="#fcefdf"/><path d="m387.63 391.58c-16.98 23.88-49.34 45.3-105.87 60.91-8.42 2.33-17.09 3.49-25.76 3.49v-296.39c3.59 0 7.33.19 11.2.61 0 0 88.41 67.75 111.13 126.8 25.4 66 9.3 104.58 9.3 104.58z" fill="#edd4be"/><g><path d="m422.936 79.5c-61.76 8.929-102.1 64.615-118.051 91.131-12.937-5.931-25.827-9.191-37.596-10.431 1.272 8.92 15.466 22.377 17.3 34.8 6.496 44.012.553 83.102 7.143 112.784 4.34 19.532 36.908 5.074 67.69 23.549 27.963 16.784 28.208 60.247 28.208 60.247 23.233-32.67 17.726-69.946 5.877-103.283 92.496-82.654 29.429-208.797 29.429-208.797z" fill="#b56f40"/><path d="m89.064 79.5s-63.09 126.188 29.479 208.842c-11.864 33.325-17.397 70.583 5.827 103.238 0 0 .333-43.463 28.297-60.247 30.782-18.476 63.35-4.017 67.69-23.549 6.59-29.682.647-68.772 7.143-112.784 1.834-12.423 16.028-25.88 17.3-34.8-11.791 1.243-24.706 4.511-37.666 10.463-15.938-26.503-56.286-82.23-118.07-91.163z" fill="#cc8656"/></g><g><g><path d="m173.71 192.94c-13.46 12.34-25.83 28.68-35.66 49.94-.72 1.56-1.46 3.15-2.2 4.76-38.36-37.06-17.42-100.62-17.42-100.62 33.67 4.87 52.93 41.22 55.28 45.92z" fill="#fcefdf"/><path d="m376.15 247.64c-.74-1.61-1.48-3.2-2.2-4.76-9.83-21.26-22.2-37.6-35.66-49.94 2.35-4.7 21.61-41.05 55.28-45.92 0 0 20.94 63.56-17.42 100.62z" fill="#edd4be"/></g><path d="m257.122 351.999c-20.157 0-37.876 1.2-32.679 23.936 3.36 14.697 24.738 25.196 32.679 25.196s29.319-10.498 32.679-25.196c5.197-22.737-12.522-23.936-32.679-23.936z" fill="#514b40"/><path d="m289.8 375.929c-3.356 14.707-24.737 25.204-32.678 25.204v-49.131c20.16 0 37.878 1.201 32.678 23.927z" fill="#3a352e"/><g><g><ellipse cx="205.02" cy="302.526" fill="#514b40" rx="17.725" ry="17.725" transform="matrix(.033 -1 1 .033 -104.009 497.608)"/></g><g><ellipse cx="306.98" cy="302.526" fill="#3a352e" rx="17.725" ry="17.725" transform="matrix(.999 -.045 .045 .999 -13.207 14.015)"/></g></g></g></g></g></svg>